<svg xmlns="http://www.w3.org/2000/svg" version="1.1" xmlns:xlink="http://www.w3.org/1999/xlink" width="283.8" height="439.33"><svg id="SvgjsSvg1007" xmlns="http://www.w3.org/2000/svg" viewBox="0 0 283.8 439.33"><defs><style>.cls-1{fill:#ff2056;}</style></defs><path class="cls-1" d="M205.18,4.25h-126.57C38.77,4.25,6.47,36.56,6.47,76.4v129.35c0,33.88,8.16,67.27,23.78,97.33l47.62,91.63c26.94,51.84,101.11,51.84,128.04,0l47.65-91.73c15.61-30.06,23.77-63.43,23.77-97.3V76.4c0-39.84-32.3-72.15-72.15-72.15ZM218.34,120.51c0,22.58-5.43,44.3-15.84,64.34l-24.47,47.1c-15.2,29.26-57.07,29.27-72.27,0l-24.45-47.05c-10.42-20.04-15.85-41.77-15.85-64.35v-12.61c0-22.49,18.23-40.72,40.72-40.72h71.44c22.49,0,40.72,18.23,40.72,40.72v12.56Z"></path></svg><style>@media (prefers-color-scheme: light) { :root { filter: none; } }
@media (prefers-color-scheme: dark) { :root { filter: none; } }
</style></svg>